<svg width="398" height="417" viewBox="0 0 398 417" fill="none" xmlns="http://www.w3.org/2000/svg">
<g clip-path="url(#clip0_1515_820)">
<g opacity="0.6" filter="url(#filter0_f_1515_820)">
<mask id="path-1-outside-1_1515_820" maskUnits="userSpaceOnUse" x="-212.075" y="-212.553" width="839" height="842" fill="black">
<rect fill="white" x="-212.075" y="-212.553" width="839" height="842"/>
<path d="M397.158 10.1157C395.293 4.41129 391.982 0.547593 384.388 0.590118C363.551 0.705543 342.713 0.498993 321.87 0.462543C304.186 0.432168 286.495 0.456468 268.811 0.456468C268.811 0.614418 268.811 0.772368 268.811 0.930318C220.922 0.930318 173.033 0.942468 125.149 0.875643C123.412 0.875643 122.337 1.33734 121.492 2.77104C119.463 6.22164 117.38 9.64187 115.314 13.0742C106.754 27.308 98.1643 41.5235 89.6533 55.7815C81.8104 68.9217 74.1013 82.147 66.2402 95.2811C57.2796 110.25 48.1732 125.14 39.1943 140.096C27.0504 160.332 14.9368 180.58 2.87188 200.865C0.40543 205.02 0.168505 209.315 2.8172 213.604C7.34915 220.949 11.8386 228.318 16.3159 235.693C25.6045 251.002 34.8507 266.335 44.1576 281.638C53.0878 296.315 62.0849 310.944 71.0212 325.615C79.6903 339.842 88.3046 354.1 96.9615 368.34C105.418 382.258 113.874 396.176 122.361 410.076C124.591 413.727 127.835 416.132 132.172 416.229C140.106 416.406 148.052 416.521 155.968 416.12C158.422 415.999 161.356 414.686 163.057 412.937C165.615 410.306 167.401 406.874 169.309 403.66C174.952 394.135 180.487 384.536 186.088 374.986C192.114 364.701 198.177 354.447 204.203 344.162C209.786 334.63 215.327 325.068 220.916 315.542C228.303 302.943 235.733 290.362 243.12 277.762C250.045 265.94 256.916 254.094 263.848 242.278C271.302 229.569 278.823 216.903 286.271 204.194C295.608 188.271 304.884 172.312 314.228 156.396C323.006 141.445 331.857 126.537 340.624 111.58C349.451 96.5326 358.174 81.4302 367.013 66.3885C376.332 50.5206 385.791 34.7316 395.05 18.8333C396.556 16.2515 398.239 13.457 397.151 10.1279L397.158 10.1157ZM235.198 90.5609L135.428 259.045C130.465 267.428 119.646 270.199 111.268 265.235C102.885 260.272 100.114 249.453 105.078 241.075L204.847 72.591C209.811 64.2075 220.63 61.4373 229.008 66.4006C237.391 71.3639 240.161 82.1834 235.198 90.5609Z"/>
</mask>
<path d="M397.158 10.1157L587.35 105.175L626.396 27.0529L599.255 -55.9589L397.158 10.1157ZM384.388 0.590118L385.566 213.212L385.579 213.212L384.388 0.590118ZM321.87 0.462543L322.242 -212.162L322.235 -212.162L321.87 0.462543ZM268.811 0.456468V-212.169H56.1861V0.456468H268.811ZM268.811 0.930318V213.555H481.436V0.930318H268.811ZM125.149 0.875643L125.446 -211.749L125.298 -211.749H125.149V0.875643ZM121.492 2.77104L-61.7165 -105.136L-61.7548 -105.071L-61.793 -105.006L121.492 2.77104ZM115.314 13.0742L-66.868 -96.5574L-66.8842 -96.5304L-66.9005 -96.5033L115.314 13.0742ZM89.6533 55.7815L-92.9178 -53.201L-92.9239 -53.1908L89.6533 55.7815ZM66.2402 95.2811L248.676 204.491L248.68 204.484L248.684 204.477L66.2402 95.2811ZM39.1943 140.096L-143.104 30.6582L-143.112 30.672L-143.12 30.6857L39.1943 140.096ZM2.87188 200.865L-179.871 92.171L-179.92 92.2535L-179.969 92.3361L2.87188 200.865ZM2.8172 213.604L183.767 101.951L183.746 101.916L183.725 101.882L2.8172 213.604ZM16.3159 235.693L198.097 125.398L198.083 125.375L198.07 125.353L16.3159 235.693ZM44.1576 281.638L-137.508 392.123L-137.497 392.141L-137.487 392.158L44.1576 281.638ZM71.0212 325.615L-110.569 436.223L-110.561 436.236L-110.553 436.25L71.0212 325.615ZM96.9615 368.34L278.674 257.933L278.661 257.91L278.647 257.887L96.9615 368.34ZM122.361 410.076L-59.1111 520.878L-59.1053 520.888L122.361 410.076ZM132.172 416.229L127.409 628.801L127.43 628.802L127.452 628.802L132.172 416.229ZM155.968 416.12L145.455 203.755L145.333 203.761L145.212 203.767L155.968 416.12ZM163.057 412.937L10.6113 264.716L10.6064 264.721L163.057 412.937ZM169.309 403.66L352.149 512.19L352.194 512.115L352.238 512.041L169.309 403.66ZM186.088 374.986L369.494 482.557L369.517 482.518L369.54 482.479L186.088 374.986ZM204.203 344.162L387.656 451.654L387.665 451.639L387.673 451.624L204.203 344.162ZM220.916 315.542L404.305 423.143L404.322 423.114L404.339 423.085L220.916 315.542ZM243.12 277.762L426.543 385.304L426.563 385.271L426.582 385.237L243.12 277.762ZM263.848 242.278L447.245 349.865L447.249 349.857L447.254 349.849L263.848 242.278ZM286.271 204.194L102.856 96.6364L102.841 96.6621L102.826 96.6877L286.271 204.194ZM314.228 156.396L130.873 48.7371L130.867 48.7464L130.862 48.7557L314.228 156.396ZM340.624 111.58L157.224 3.99858L157.204 4.03186L157.185 4.06516L340.624 111.58ZM367.013 66.3885L550.33 174.113L550.344 174.089L550.358 174.065L367.013 66.3885ZM395.05 18.8333L211.404 -88.3291L211.357 -88.248L211.31 -88.1669L395.05 18.8333ZM397.151 10.1279L206.959 -84.931L167.929 -6.83961L195.036 76.1474L397.151 10.1279ZM235.198 90.5609L52.2679 -17.8177L52.2559 -17.7976L52.244 -17.7774L235.198 90.5609ZM135.428 259.045L-47.5257 150.707L-47.531 150.716L-47.5363 150.725L135.428 259.045ZM111.268 265.235L219.647 82.3051L219.618 82.2879L219.589 82.2707L111.268 265.235ZM105.078 241.075L288.008 349.454L288.02 349.434L288.032 349.413L105.078 241.075ZM204.847 72.591L387.801 180.929L387.807 180.92L387.812 180.911L204.847 72.591ZM229.008 66.4006L120.629 249.331L120.658 249.348L120.687 249.365L229.008 66.4006ZM599.255 -55.9589C591.989 -78.1827 573.925 -122.773 528.974 -160.201C480.119 -200.879 425.089 -212.266 383.197 -212.032L385.579 213.212C351.28 213.404 301.703 203.928 256.868 166.596C215.938 132.515 200.461 92.7097 195.06 76.1903L599.255 -55.9589ZM383.21 -212.032C363.207 -211.921 345.598 -212.121 322.242 -212.162L321.498 213.087C339.829 213.119 363.894 213.332 385.566 213.212L383.21 -212.032ZM322.235 -212.162C304.318 -212.193 286.095 -212.169 268.811 -212.169V213.081C286.896 213.081 304.053 213.057 321.505 213.087L322.235 -212.162ZM56.1861 0.456468C56.1861 0.456776 56.1861 0.457085 56.1861 0.457393C56.1861 0.457702 56.1861 0.45801 56.1861 0.458319C56.1861 0.458627 56.1861 0.458936 56.1861 0.459244C56.1861 0.459553 56.1861 0.459861 56.1861 0.46017C56.1861 0.460478 56.1861 0.460787 56.1861 0.461095C56.1861 0.461404 56.1861 0.461712 56.1861 0.462021C56.1861 0.462329 56.1861 0.462638 56.1861 0.462946C56.1861 0.463255 56.1861 0.463563 56.1861 0.463872C56.1861 0.46418 56.1861 0.464489 56.1861 0.464797C56.1861 0.465106 56.1861 0.465414 56.1861 0.465723C56.1861 0.466031 56.1861 0.46634 56.1861 0.466648C56.1861 0.466957 56.1861 0.467265 56.1861 0.467574C56.1861 0.467882 56.1861 0.468191 56.1861 0.468499C56.1861 0.468808 56.1861 0.469116 56.1861 0.469425C56.1861 0.469733 56.1861 0.470042 56.1861 0.47035C56.1861 0.470659 56.1861 0.470967 56.1861 0.471276C56.1861 0.471584 56.1861 0.471893 56.1861 0.472201C56.1861 0.47251 56.1861 0.472818 56.1861 0.473127C56.1861 0.473435 56.1861 0.473744 56.1861 0.474052C56.1861 0.474361 56.1861 0.474669 56.1861 0.474978C56.1861 0.475286 56.1861 0.475595 56.1861 0.475903C56.1861 0.476212 56.1861 0.47652 56.1861 0.476829C56.1861 0.477137 56.1861 0.477446 56.1861 0.477754C56.1861 0.478063 56.1861 0.478371 56.1861 0.47868C56.1861 0.478988 56.1861 0.479297 56.1861 0.479605C56.1861 0.479914 56.1861 0.480222 56.1861 0.480531C56.1861 0.480839 56.1861 0.481148 56.1861 0.481456C56.1861 0.481765 56.1861 0.482073 56.1861 0.482382C56.1861 0.48269 56.1861 0.482999 56.1861 0.483307C56.1861 0.483616 56.1861 0.483924 56.1861 0.484233C56.1861 0.484541 56.1861 0.48485 56.1861 0.485158C56.1861 0.485467 56.1861 0.485775 56.1861 0.486084C56.1861 0.486392 56.1861 0.486701 56.1861 0.487009C56.1861 0.487318 56.1861 0.487626 56.1861 0.487935C56.1861 0.488243 56.1861 0.488552 56.1861 0.48886C56.1861 0.489169 56.1861 0.489477 56.1861 0.489786C56.1861 0.490094 56.1861 0.490403 56.1861 0.490711C56.1861 0.49102 56.1861 0.491328 56.1861 0.491637C56.1861 0.491945 56.1861 0.492254 56.1861 0.492562C56.1861 0.492871 56.1861 0.493179 56.1861 0.493488C56.1861 0.493796 56.1861 0.494105 56.1861 0.494413C56.1861 0.494722 56.1861 0.49503 56.1861 0.495339C56.1861 0.495647 56.1861 0.495955 56.1861 0.496264C56.1861 0.496572 56.1861 0.496881 56.1861 0.497189C56.1861 0.497498 56.1861 0.497806 56.1861 0.498115C56.1861 0.498423 56.1861 0.498732 56.1861 0.49904C56.1861 0.499349 56.1861 0.499657 56.1861 0.499966C56.1861 0.500274 56.1861 0.500583 56.1861 0.500891C56.1861 0.5012 56.1861 0.501508 56.1861 0.501817C56.1861 0.502125 56.1861 0.502434 56.1861 0.502742C56.1861 0.503051 56.1861 0.503359 56.1861 0.503668C56.1861 0.503976 56.1861 0.504285 56.1861 0.504593C56.1861 0.504902 56.1861 0.50521 56.1861 0.505519C56.1861 0.505827 56.1861 0.506136 56.1861 0.506444C56.1861 0.506753 56.1861 0.507061 56.1861 0.50737C56.1861 0.507678 56.1861 0.507987 56.1861 0.508295C56.1861 0.508604 56.1861 0.508912 56.1861 0.509221C56.1861 0.509529 56.1861 0.509838 56.1861 0.510146C56.1861 0.510455 56.1861 0.510763 56.1861 0.511072C56.1861 0.51138 56.1861 0.511689 56.1861 0.511997C56.1861 0.512306 56.1861 0.512614 56.1861 0.512923C56.1861 0.513231 56.1861 0.51354 56.1861 0.513848C56.1861 0.514157 56.1861 0.514465 56.1861 0.514774C56.1861 0.515082 56.1861 0.515391 56.1861 0.515699C56.1861 0.516008 56.1861 0.516316 56.1861 0.516625C56.1861 0.516933 56.1861 0.517242 56.1861 0.51755C56.1861 0.517859 56.1861 0.518167 56.1861 0.518476C56.1861 0.518784 56.1861 0.519093 56.1861 0.519401C56.1861 0.51971 56.1861 0.520018 56.1861 0.520327C56.1861 0.520635 56.1861 0.520944 56.1861 0.521252C56.1861 0.521561 56.1861 0.521869 56.1861 0.522178C56.1861 0.522486 56.1861 0.522795 56.1861 0.523103C56.1861 0.523412 56.1861 0.52372 56.1861 0.524029C56.1861 0.524337 56.1861 0.524646 56.1861 0.524954C56.1861 0.525263 56.1861 0.525571 56.1861 0.52588C56.1861 0.526188 56.1861 0.526497 56.1861 0.526805C56.1861 0.527114 56.1861 0.527422 56.1861 0.527731C56.1861 0.528039 56.1861 0.528348 56.1861 0.528656C56.1861 0.528965 56.1861 0.529273 56.1861 0.529582C56.1861 0.52989 56.1861 0.530199 56.1861 0.530507C56.1861 0.530816 56.1861 0.531124 56.1861 0.531433C56.1861 0.531741 56.1861 0.53205 56.1861 0.532358C56.1861 0.532667 56.1861 0.532975 56.1861 0.533284C56.1861 0.533592 56.1861 0.533901 56.1861 0.534209C56.1861 0.534518 56.1861 0.534826 56.1861 0.535134C56.1861 0.535443 56.1861 0.535751 56.1861 0.53606C56.1861 0.536368 56.1861 0.536677 56.1861 0.536985C56.1861 0.537294 56.1861 0.537602 56.1861 0.537911C56.1861 0.538219 56.1861 0.538528 56.1861 0.538836C56.1861 0.539145 56.1861 0.539453 56.1861 0.539762C56.1861 0.54007 56.1861 0.540379 56.1861 0.540687C56.1861 0.540996 56.1861 0.541304 56.1861 0.541613C56.1861 0.541921 56.1861 0.54223 56.1861 0.542538C56.1861 0.542847 56.1861 0.543155 56.1861 0.543464C56.1861 0.543772 56.1861 0.544081 56.1861 0.544389C56.1861 0.544698 56.1861 0.545006 56.1861 0.545315C56.1861 0.545623 56.1861 0.545932 56.1861 0.54624C56.1861 0.546549 56.1861 0.546857 56.1861 0.547166C56.1861 0.547474 56.1861 0.547783 56.1861 0.548091C56.1861 0.5484 56.1861 0.548708 56.1861 0.549017C56.1861 0.549325 56.1861 0.549634 56.1861 0.549942C56.1861 0.550251 56.1861 0.550559 56.1861 0.550868C56.1861 0.551176 56.1861 0.551485 56.1861 0.551793C56.1861 0.552102 56.1861 0.55241 56.1861 0.552719C56.1861 0.553027 56.1861 0.553336 56.1861 0.553644C56.1861 0.553953 56.1861 0.554261 56.1861 0.55457C56.1861 0.554878 56.1861 0.555187 56.1861 0.555495C56.1861 0.555804 56.1861 0.556112 56.1861 0.556421C56.1861 0.556729 56.1861 0.557038 56.1861 0.557346C56.1861 0.557655 56.1861 0.557963 56.1861 0.558272C56.1861 0.55858 56.1861 0.558889 56.1861 0.559197C56.1861 0.559506 56.1861 0.559814 56.1861 0.560123C56.1861 0.560431 56.1861 0.56074 56.1861 0.561048C56.1861 0.561357 56.1861 0.561665 56.1861 0.561974C56.1861 0.562282 56.1861 0.562591 56.1861 0.562899C56.1861 0.563208 56.1861 0.563516 56.1861 0.563825C56.1861 0.564133 56.1861 0.564442 56.1861 0.56475C56.1861 0.565059 56.1861 0.565367 56.1861 0.565676C56.1861 0.565984 56.1861 0.566293 56.1861 0.566601C56.1861 0.56691 56.1861 0.567218 56.1861 0.567527C56.1861 0.567835 56.1861 0.568144 56.1861 0.568452C56.1861 0.568761 56.1861 0.569069 56.1861 0.569378C56.1861 0.569686 56.1861 0.569995 56.1861 0.570303C56.1861 0.570612 56.1861 0.57092 56.1861 0.571229C56.1861 0.571537 56.1861 0.571846 56.1861 0.572154C56.1861 0.572463 56.1861 0.572771 56.1861 0.57308C56.1861 0.573388 56.1861 0.573697 56.1861 0.574005C56.1861 0.574314 56.1861 0.574622 56.1861 0.57493C56.1861 0.575239 56.1861 0.575547 56.1861 0.575856C56.1861 0.576164 56.1861 0.576473 56.1861 0.576781C56.1861 0.57709 56.1861 0.577398 56.1861 0.577707C56.1861 0.578015 56.1861 0.578324 56.1861 0.578632C56.1861 0.578941 56.1861 0.579249 56.1861 0.579558C56.1861 0.579866 56.1861 0.580175 56.1861 0.580483C56.1861 0.580792 56.1861 0.5811 56.1861 0.581409C56.1861 0.581717 56.1861 0.582026 56.1861 0.582334C56.1861 0.582643 56.1861 0.582951 56.1861 0.58326C56.1861 0.583568 56.1861 0.583877 56.1861 0.584185C56.1861 0.584494 56.1861 0.584802 56.1861 0.585111C56.1861 0.585419 56.1861 0.585728 56.1861 0.586036C56.1861 0.586345 56.1861 0.586653 56.1861 0.586962C56.1861 0.58727 56.1861 0.587579 56.1861 0.587887C56.1861 0.588196 56.1861 0.588504 56.1861 0.588813C56.1861 0.589121 56.1861 0.58943 56.1861 0.589738C56.1861 0.590047 56.1861 0.590355 56.1861 0.590664C56.1861 0.590972 56.1861 0.591281 56.1861 0.591589C56.1861 0.591898 56.1861 0.592206 56.1861 0.592515C56.1861 0.592823 56.1861 0.593132 56.1861 0.59344C56.1861 0.593749 56.1861 0.594057 56.1861 0.594366C56.1861 0.594674 56.1861 0.594983 56.1861 0.595291C56.1861 0.5956 56.1861 0.595908 56.1861 0.596217C56.1861 0.596525 56.1861 0.596834 56.1861 0.597142C56.1861 0.597451 56.1861 0.597759 56.1861 0.598068C56.1861 0.598376 56.1861 0.598685 56.1861 0.598993C56.1861 0.599302 56.1861 0.59961 56.1861 0.599919C56.1861 0.600227 56.1861 0.600536 56.1861 0.600844C56.1861 0.601153 56.1861 0.601461 56.1861 0.60177C56.1861 0.602078 56.1861 0.602387 56.1861 0.602695C56.1861 0.603004 56.1861 0.603312 56.1861 0.603621C56.1861 0.603929 56.1861 0.604238 56.1861 0.604546C56.1861 0.604855 56.1861 0.605163 56.1861 0.605472C56.1861 0.60578 56.1861 0.606089 56.1861 0.606397C56.1861 0.606706 56.1861 0.607014 56.1861 0.607323C56.1861 0.607631 56.1861 0.60794 56.1861 0.608248C56.1861 0.608557 56.1861 0.608865 56.1861 0.609174C56.1861 0.609482 56.1861 0.609791 56.1861 0.610099C56.1861 0.610408 56.1861 0.610716 56.1861 0.611025C56.1861 0.611333 56.1861 0.611642 56.1861 0.61195C56.1861 0.612259 56.1861 0.612567 56.1861 0.612876C56.1861 0.613184 56.1861 0.613493 56.1861 0.613801C56.1861 0.61411 56.1861 0.614418 56.1861 0.614726C56.1861 0.615035 56.1861 0.615343 56.1861 0.615652C56.1861 0.61596 56.1861 0.616269 56.1861 0.616577C56.1861 0.616886 56.1861 0.617194 56.1861 0.617503C56.1861 0.617811 56.1861 0.61812 56.1861 0.618428C56.1861 0.618737 56.1861 0.619045 56.1861 0.619354C56.1861 0.619662 56.1861 0.619971 56.1861 0.620279C56.1861 0.620588 56.1861 0.620896 56.1861 0.621205C56.1861 0.621513 56.1861 0.621822 56.1861 0.62213C56.1861 0.622439 56.1861 0.622747 56.1861 0.623056C56.1861 0.623364 56.1861 0.623673 56.1861 0.623981C56.1861 0.62429 56.1861 0.624598 56.1861 0.624907C56.1861 0.625215 56.1861 0.625524 56.1861 0.625832C56.1861 0.626141 56.1861 0.626449 56.1861 0.626758C56.1861 0.627066 56.1861 0.627375 56.1861 0.627683C56.1861 0.627992 56.1861 0.6283 56.1861 0.628609C56.1861 0.628917 56.1861 0.629226 56.1861 0.629534C56.1861 0.629843 56.1861 0.630151 56.1861 0.63046C56.1861 0.630768 56.1861 0.631077 56.1861 0.631385C56.1861 0.631694 56.1861 0.632002 56.1861 0.632311C56.1861 0.632619 56.1861 0.632928 56.1861 0.633236C56.1861 0.633545 56.1861 0.633853 56.1861 0.634162C56.1861 0.63447 56.1861 0.634779 56.1861 0.635087C56.1861 0.635396 56.1861 0.635704 56.1861 0.636013C56.1861 0.636321 56.1861 0.63663 56.1861 0.636938C56.1861 0.637247 56.1861 0.637555 56.1861 0.637864C56.1861 0.638172 56.1861 0.638481 56.1861 0.638789C56.1861 0.639098 56.1861 0.639406 56.1861 0.639715C56.1861 0.640023 56.1861 0.640332 56.1861 0.64064C56.1861 0.640949 56.1861 0.641257 56.1861 0.641566C56.1861 0.641874 56.1861 0.642183 56.1861 0.642491C56.1861 0.6428 56.1861 0.643108 56.1861 0.643417C56.1861 0.643725 56.1861 0.644034 56.1861 0.644342C56.1861 0.644651 56.1861 0.644959 56.1861 0.645268C56.1861 0.645576 56.1861 0.645885 56.1861 0.646193C56.1861 0.646502 56.1861 0.64681 56.1861 0.647119C56.1861 0.647427 56.1861 0.647736 56.1861 0.648044C56.1861 0.648353 56.1861 0.648661 56.1861 0.64897C56.1861 0.649278 56.1861 0.649587 56.1861 0.649895C56.1861 0.650204 56.1861 0.650512 56.1861 0.650821C56.1861 0.651129 56.1861 0.651438 56.1861 0.651746C56.1861 0.652055 56.1861 0.652363 56.1861 0.652672C56.1861 0.65298 56.1861 0.653289 56.1861 0.653597C56.1861 0.653906 56.1861 0.654214 56.1861 0.654522C56.1861 0.654831 56.1861 0.655139 56.1861 0.655448C56.1861 0.655756 56.1861 0.656065 56.1861 0.656373C56.1861 0.656682 56.1861 0.65699 56.1861 0.657299C56.1861 0.657607 56.1861 0.657916 56.1861 0.658224C56.1861 0.658533 56.1861 0.658841 56.1861 0.65915C56.1861 0.659458 56.1861 0.659767 56.1861 0.660075C56.1861 0.660384 56.1861 0.660692 56.1861 0.661001C56.1861 0.661309 56.1861 0.661618 56.1861 0.661926C56.1861 0.662235 56.1861 0.662543 56.1861 0.662852C56.1861 0.66316 56.1861 0.663469 56.1861 0.663777C56.1861 0.664086 56.1861 0.664394 56.1861 0.664703C56.1861 0.665011 56.1861 0.66532 56.1861 0.665628C56.1861 0.665937 56.1861 0.666245 56.1861 0.666554C56.1861 0.666862 56.1861 0.667171 56.1861 0.667479C56.1861 0.667788 56.1861 0.668096 56.1861 0.668405C56.1861 0.668713 56.1861 0.669022 56.1861 0.66933C56.1861 0.669639 56.1861 0.669947 56.1861 0.670256C56.1861 0.670564 56.1861 0.670873 56.1861 0.671181C56.1861 0.67149 56.1861 0.671798 56.1861 0.672107C56.1861 0.672415 56.1861 0.672724 56.1861 0.673032C56.1861 0.673341 56.1861 0.673649 56.1861 0.673958C56.1861 0.674266 56.1861 0.674575 56.1861 0.674883C56.1861 0.675192 56.1861 0.6755 56.1861 0.675809C56.1861 0.676117 56.1861 0.676426 56.1861 0.676734C56.1861 0.677043 56.1861 0.677351 56.1861 0.67766C56.1861 0.677968 56.1861 0.678277 56.1861 0.678585C56.1861 0.678894 56.1861 0.679202 56.1861 0.679511C56.1861 0.679819 56.1861 0.680128 56.1861 0.680436C56.1861 0.680745 56.1861 0.681053 56.1861 0.681362C56.1861 0.68167 56.1861 0.681979 56.1861 0.682287C56.1861 0.682596 56.1861 0.682904 56.1861 0.683213C56.1861 0.683521 56.1861 0.68383 56.1861 0.684138C56.1861 0.684447 56.1861 0.684755 56.1861 0.685064C56.1861 0.685372 56.1861 0.685681 56.1861 0.685989C56.1861 0.686298 56.1861 0.686606 56.1861 0.686915C56.1861 0.687223 56.1861 0.687532 56.1861 0.68784C56.1861 0.688149 56.1861 0.688457 56.1861 0.688766C56.1861 0.689074 56.1861 0.689383 56.1861 0.689691C56.1861 0.69 56.1861 0.690308 56.1861 0.690617C56.1861 0.690925 56.1861 0.691234 56.1861 0.691542C56.1861 0.691851 56.1861 0.692159 56.1861 0.692468C56.1861 0.692776 56.1861 0.693085 56.1861 0.693393C56.1861 0.693702 56.1861 0.69401 56.1861 0.694318C56.1861 0.694627 56.1861 0.694935 56.1861 0.695244C56.1861 0.695552 56.1861 0.695861 56.1861 0.696169C56.1861 0.696478 56.1861 0.696786 56.1861 0.697095C56.1861 0.697403 56.1861 0.697712 56.1861 0.69802C56.1861 0.698329 56.1861 0.698637 56.1861 0.698946C56.1861 0.699254 56.1861 0.699563 56.1861 0.699871C56.1861 0.70018 56.1861 0.700488 56.1861 0.700797C56.1861 0.701105 56.1861 0.701414 56.1861 0.701722C56.1861 0.702031 56.1861 0.702339 56.1861 0.702648C56.1861 0.702956 56.1861 0.703265 56.1861 0.703573C56.1861 0.703882 56.1861 0.70419 56.1861 0.704499C56.1861 0.704807 56.1861 0.705116 56.1861 0.705424C56.1861 0.705733 56.1861 0.706041 56.1861 0.70635C56.1861 0.706658 56.1861 0.706967 56.1861 0.707275C56.1861 0.707584 56.1861 0.707892 56.1861 0.708201C56.1861 0.708509 56.1861 0.708818 56.1861 0.709126C56.1861 0.709435 56.1861 0.709743 56.1861 0.710052C56.1861 0.71036 56.1861 0.710669 56.1861 0.710977C56.1861 0.711286 56.1861 0.711594 56.1861 0.711903C56.1861 0.712211 56.1861 0.71252 56.1861 0.712828C56.1861 0.713137 56.1861 0.713445 56.1861 0.713754C56.1861 0.714062 56.1861 0.714371 56.1861 0.714679C56.1861 0.714988 56.1861 0.715296 56.1861 0.715605C56.1861 0.715913 56.1861 0.716222 56.1861 0.71653C56.1861 0.716839 56.1861 0.717147 56.1861 0.717456C56.1861 0.717764 56.1861 0.718073 56.1861 0.718381C56.1861 0.71869 56.1861 0.718998 56.1861 0.719307C56.1861 0.719615 56.1861 0.719924 56.1861 0.720232C56.1861 0.720541 56.1861 0.720849 56.1861 0.721158C56.1861 0.721466 56.1861 0.721775 56.1861 0.722083C56.1861 0.722392 56.1861 0.7227 56.1861 0.723009C56.1861 0.723317 56.1861 0.723626 56.1861 0.723934C56.1861 0.724243 56.1861 0.724551 56.1861 0.72486C56.1861 0.725168 56.1861 0.725477 56.1861 0.725785C56.1861 0.726094 56.1861 0.726402 56.1861 0.726711C56.1861 0.727019 56.1861 0.727328 56.1861 0.727636C56.1861 0.727945 56.1861 0.728253 56.1861 0.728562C56.1861 0.72887 56.1861 0.729179 56.1861 0.729487C56.1861 0.729796 56.1861 0.730104 56.1861 0.730413C56.1861 0.730721 56.1861 0.73103 56.1861 0.731338C56.1861 0.731647 56.1861 0.731955 56.1861 0.732264C56.1861 0.732572 56.1861 0.732881 56.1861 0.733189C56.1861 0.733498 56.1861 0.733806 56.1861 0.734114C56.1861 0.734423 56.1861 0.734731 56.1861 0.73504C56.1861 0.735348 56.1861 0.735657 56.1861 0.735965C56.1861 0.736274 56.1861 0.736582 56.1861 0.736891C56.1861 0.737199 56.1861 0.737508 56.1861 0.737816C56.1861 0.738125 56.1861 0.738433 56.1861 0.738742C56.1861 0.73905 56.1861 0.739359 56.1861 0.739667C56.1861 0.739976 56.1861 0.740284 56.1861 0.740593C56.1861 0.740901 56.1861 0.74121 56.1861 0.741518C56.1861 0.741827 56.1861 0.742135 56.1861 0.742444C56.1861 0.742752 56.1861 0.743061 56.1861 0.743369C56.1861 0.743678 56.1861 0.743986 56.1861 0.744295C56.1861 0.744603 56.1861 0.744912 56.1861 0.74522C56.1861 0.745529 56.1861 0.745837 56.1861 0.746146C56.1861 0.746454 56.1861 0.746763 56.1861 0.747071C56.1861 0.74738 56.1861 0.747688 56.1861 0.747997C56.1861 0.748305 56.1861 0.748614 56.1861 0.748922C56.1861 0.749231 56.1861 0.749539 56.1861 0.749848C56.1861 0.750156 56.1861 0.750465 56.1861 0.750773C56.1861 0.751082 56.1861 0.75139 56.1861 0.751699C56.1861 0.752007 56.1861 0.752316 56.1861 0.752624C56.1861 0.752933 56.1861 0.753241 56.1861 0.75355C56.1861 0.753858 56.1861 0.754167 56.1861 0.754475C56.1861 0.754784 56.1861 0.755092 56.1861 0.755401C56.1861 0.755709 56.1861 0.756018 56.1861 0.756326C56.1861 0.756635 56.1861 0.756943 56.1861 0.757252C56.1861 0.75756 56.1861 0.757869 56.1861 0.758177C56.1861 0.758486 56.1861 0.758794 56.1861 0.759103C56.1861 0.759411 56.1861 0.75972 56.1861 0.760028C56.1861 0.760337 56.1861 0.760645 56.1861 0.760954C56.1861 0.761262 56.1861 0.761571 56.1861 0.761879C56.1861 0.762188 56.1861 0.762496 56.1861 0.762805C56.1861 0.763113 56.1861 0.763422 56.1861 0.76373C56.1861 0.764039 56.1861 0.764347 56.1861 0.764656C56.1861 0.764964 56.1861 0.765273 56.1861 0.765581C56.1861 0.76589 56.1861 0.766198 56.1861 0.766507C56.1861 0.766815 56.1861 0.767124 56.1861 0.767432C56.1861 0.767741 56.1861 0.768049 56.1861 0.768358C56.1861 0.768666 56.1861 0.768975 56.1861 0.769283C56.1861 0.769592 56.1861 0.7699 56.1861 0.770209C56.1861 0.770517 56.1861 0.770826 56.1861 0.771134C56.1861 0.771443 56.1861 0.771751 56.1861 0.77206C56.1861 0.772368 56.1861 0.772677 56.1861 0.772985C56.1861 0.773294 56.1861 0.773602 56.1861 0.77391C56.1861 0.774219 56.1861 0.774527 56.1861 0.774836C56.1861 0.775144 56.1861 0.775453 56.1861 0.775761C56.1861 0.77607 56.1861 0.776378 56.1861 0.776687C56.1861 0.776995 56.1861 0.777304 56.1861 0.777612C56.1861 0.777921 56.1861 0.778229 56.1861 0.778538C56.1861 0.778846 56.1861 0.779155 56.1861 0.779463C56.1861 0.779772 56.1861 0.78008 56.1861 0.780389C56.1861 0.780697 56.1861 0.781006 56.1861 0.781314C56.1861 0.781623 56.1861 0.781931 56.1861 0.78224C56.1861 0.782548 56.1861 0.782857 56.1861 0.783165C56.1861 0.783474 56.1861 0.783782 56.1861 0.784091C56.1861 0.784399 56.1861 0.784708 56.1861 0.785016C56.1861 0.785325 56.1861 0.785633 56.1861 0.785942C56.1861 0.78625 56.1861 0.786559 56.1861 0.786867C56.1861 0.787176 56.1861 0.787484 56.1861 0.787793C56.1861 0.788101 56.1861 0.78841 56.1861 0.788718C56.1861 0.789027 56.1861 0.789335 56.1861 0.789644C56.1861 0.789952 56.1861 0.790261 56.1861 0.790569C56.1861 0.790878 56.1861 0.791186 56.1861 0.791495C56.1861 0.791803 56.1861 0.792112 56.1861 0.79242C56.1861 0.792729 56.1861 0.793037 56.1861 0.793346C56.1861 0.793654 56.1861 0.793963 56.1861 0.794271C56.1861 0.79458 56.1861 0.794888 56.1861 0.795197C56.1861 0.795505 56.1861 0.795814 56.1861 0.796122C56.1861 0.796431 56.1861 0.796739 56.1861 0.797048C56.1861 0.797356 56.1861 0.797665 56.1861 0.797973C56.1861 0.798282 56.1861 0.79859 56.1861 0.798899C56.1861 0.799207 56.1861 0.799516 56.1861 0.799824C56.1861 0.800133 56.1861 0.800441 56.1861 0.80075C56.1861 0.801058 56.1861 0.801367 56.1861 0.801675C56.1861 0.801984 56.1861 0.802292 56.1861 0.802601C56.1861 0.802909 56.1861 0.803218 56.1861 0.803526C56.1861 0.803835 56.1861 0.804143 56.1861 0.804452C56.1861 0.80476 56.1861 0.805069 56.1861 0.805377C56.1861 0.805686 56.1861 0.805994 56.1861 0.806303C56.1861 0.806611 56.1861 0.80692 56.1861 0.807228C56.1861 0.807537 56.1861 0.807845 56.1861 0.808154C56.1861 0.808462 56.1861 0.808771 56.1861 0.809079C56.1861 0.809388 56.1861 0.809696 56.1861 0.810005C56.1861 0.810313 56.1861 0.810622 56.1861 0.81093C56.1861 0.811239 56.1861 0.811547 56.1861 0.811856C56.1861 0.812164 56.1861 0.812473 56.1861 0.812781C56.1861 0.81309 56.1861 0.813398 56.1861 0.813706C56.1861 0.814015 56.1861 0.814323 56.1861 0.814632C56.1861 0.81494 56.1861 0.815249 56.1861 0.815557C56.1861 0.815866 56.1861 0.816174 56.1861 0.816483C56.1861 0.816791 56.1861 0.8171 56.1861 0.817408C56.1861 0.817717 56.1861 0.818025 56.1861 0.818334C56.1861 0.818642 56.1861 0.818951 56.1861 0.819259C56.1861 0.819568 56.1861 0.819876 56.1861 0.820185C56.1861 0.820493 56.1861 0.820802 56.1861 0.82111C56.1861 0.821419 56.1861 0.821727 56.1861 0.822036C56.1861 0.822344 56.1861 0.822653 56.1861 0.822961C56.1861 0.82327 56.1861 0.823578 56.1861 0.823887C56.1861 0.824195 56.1861 0.824504 56.1861 0.824812C56.1861 0.825121 56.1861 0.825429 56.1861 0.825738C56.1861 0.826046 56.1861 0.826355 56.1861 0.826663C56.1861 0.826972 56.1861 0.82728 56.1861 0.827589C56.1861 0.827897 56.1861 0.828206 56.1861 0.828514C56.1861 0.828823 56.1861 0.829131 56.1861 0.82944C56.1861 0.829748 56.1861 0.830057 56.1861 0.830365C56.1861 0.830674 56.1861 0.830982 56.1861 0.831291C56.1861 0.831599 56.1861 0.831908 56.1861 0.832216C56.1861 0.832525 56.1861 0.832833 56.1861 0.833142C56.1861 0.83345 56.1861 0.833759 56.1861 0.834067C56.1861 0.834376 56.1861 0.834684 56.1861 0.834993C56.1861 0.835301 56.1861 0.83561 56.1861 0.835918C56.1861 0.836227 56.1861 0.836535 56.1861 0.836844C56.1861 0.837152 56.1861 0.837461 56.1861 0.837769C56.1861 0.838078 56.1861 0.838386 56.1861 0.838695C56.1861 0.839003 56.1861 0.839312 56.1861 0.83962C56.1861 0.839929 56.1861 0.840237 56.1861 0.840546C56.1861 0.840854 56.1861 0.841163 56.1861 0.841471C56.1861 0.84178 56.1861 0.842088 56.1861 0.842397C56.1861 0.842705 56.1861 0.843014 56.1861 0.843322C56.1861 0.843631 56.1861 0.843939 56.1861 0.844248C56.1861 0.844556 56.1861 0.844865 56.1861 0.845173C56.1861 0.845482 56.1861 0.84579 56.1861 0.846099C56.1861 0.846407 56.1861 0.846716 56.1861 0.847024C56.1861 0.847333 56.1861 0.847641 56.1861 0.84795C56.1861 0.848258 56.1861 0.848567 56.1861 0.848875C56.1861 0.849184 56.1861 0.849492 56.1861 0.849801C56.1861 0.850109 56.1861 0.850418 56.1861 0.850726C56.1861 0.851035 56.1861 0.851343 56.1861 0.851652C56.1861 0.85196 56.1861 0.852269 56.1861 0.852577C56.1861 0.852886 56.1861 0.853194 56.1861 0.853502C56.1861 0.853811 56.1861 0.854119 56.1861 0.854428C56.1861 0.854736 56.1861 0.855045 56.1861 0.855353C56.1861 0.855662 56.1861 0.85597 56.1861 0.856279C56.1861 0.856587 56.1861 0.856896 56.1861 0.857204C56.1861 0.857513 56.1861 0.857821 56.1861 0.85813C56.1861 0.858438 56.1861 0.858747 56.1861 0.859055C56.1861 0.859364 56.1861 0.859672 56.1861 0.859981C56.1861 0.860289 56.1861 0.860598 56.1861 0.860906C56.1861 0.861215 56.1861 0.861523 56.1861 0.861832C56.1861 0.86214 56.1861 0.862449 56.1861 0.862757C56.1861 0.863066 56.1861 0.863374 56.1861 0.863683C56.1861 0.863991 56.1861 0.8643 56.1861 0.864608C56.1861 0.864917 56.1861 0.865225 56.1861 0.865534C56.1861 0.865842 56.1861 0.866151 56.1861 0.866459C56.1861 0.866768 56.1861 0.867076 56.1861 0.867385C56.1861 0.867693 56.1861 0.868002 56.1861 0.86831C56.1861 0.868619 56.1861 0.868927 56.1861 0.869236C56.1861 0.869544 56.1861 0.869853 56.1861 0.870161C56.1861 0.87047 56.1861 0.870778 56.1861 0.871087C56.1861 0.871395 56.1861 0.871704 56.1861 0.872012C56.1861 0.872321 56.1861 0.872629 56.1861 0.872938C56.1861 0.873246 56.1861 0.873555 56.1861 0.873863C56.1861 0.874172 56.1861 0.87448 56.1861 0.874789C56.1861 0.875097 56.1861 0.875406 56.1861 0.875714C56.1861 0.876023 56.1861 0.876331 56.1861 0.87664C56.1861 0.876948 56.1861 0.877257 56.1861 0.877565C56.1861 0.877874 56.1861 0.878182 56.1861 0.878491C56.1861 0.878799 56.1861 0.879108 56.1861 0.879416C56.1861 0.879725 56.1861 0.880033 56.1861 0.880342C56.1861 0.88065 56.1861 0.880959 56.1861 0.881267C56.1861 0.881576 56.1861 0.881884 56.1861 0.882193C56.1861 0.882501 56.1861 0.88281 56.1861 0.883118C56.1861 0.883427 56.1861 0.883735 56.1861 0.884044C56.1861 0.884352 56.1861 0.884661 56.1861 0.884969C56.1861 0.885278 56.1861 0.885586 56.1861 0.885895C56.1861 0.886203 56.1861 0.886512 56.1861 0.88682C56.1861 0.887129 56.1861 0.887437 56.1861 0.887746C56.1861 0.888054 56.1861 0.888363 56.1861 0.888671C56.1861 0.88898 56.1861 0.889288 56.1861 0.889597C56.1861 0.889905 56.1861 0.890214 56.1861 0.890522C56.1861 0.890831 56.1861 0.891139 56.1861 0.891448C56.1861 0.891756 56.1861 0.892065 56.1861 0.892373C56.1861 0.892682 56.1861 0.89299 56.1861 0.893298C56.1861 0.893607 56.1861 0.893915 56.1861 0.894224C56.1861 0.894532 56.1861 0.894841 56.1861 0.895149C56.1861 0.895458 56.1861 0.895766 56.1861 0.896075C56.1861 0.896383 56.1861 0.896692 56.1861 0.897C56.1861 0.897309 56.1861 0.897617 56.1861 0.897926C56.1861 0.898234 56.1861 0.898543 56.1861 0.898851C56.1861 0.89916 56.1861 0.899468 56.1861 0.899777C56.1861 0.900085 56.1861 0.900394 56.1861 0.900702C56.1861 0.901011 56.1861 0.901319 56.1861 0.901628C56.1861 0.901936 56.1861 0.902245 56.1861 0.902553C56.1861 0.902862 56.1861 0.90317 56.1861 0.903479C56.1861 0.903787 56.1861 0.904096 56.1861 0.904404C56.1861 0.904713 56.1861 0.905021 56.1861 0.90533C56.1861 0.905638 56.1861 0.905947 56.1861 0.906255C56.1861 0.906564 56.1861 0.906872 56.1861 0.907181C56.1861 0.907489 56.1861 0.907798 56.1861 0.908106C56.1861 0.908415 56.1861 0.908723 56.1861 0.909032C56.1861 0.90934 56.1861 0.909649 56.1861 0.909957C56.1861 0.910266 56.1861 0.910574 56.1861 0.910883C56.1861 0.911191 56.1861 0.9115 56.1861 0.911808C56.1861 0.912117 56.1861 0.912425 56.1861 0.912734C56.1861 0.913042 56.1861 0.913351 56.1861 0.913659C56.1861 0.913968 56.1861 0.914276 56.1861 0.914585C56.1861 0.914893 56.1861 0.915202 56.1861 0.91551C56.1861 0.915819 56.1861 0.916127 56.1861 0.916436C56.1861 0.916744 56.1861 0.917053 56.1861 0.917361C56.1861 0.91767 56.1861 0.917978 56.1861 0.918287C56.1861 0.918595 56.1861 0.918904 56.1861 0.919212C56.1861 0.919521 56.1861 0.919829 56.1861 0.920138C56.1861 0.920446 56.1861 0.920755 56.1861 0.921063C56.1861 0.921372 56.1861 0.92168 56.1861 0.921989C56.1861 0.922297 56.1861 0.922606 56.1861 0.922914C56.1861 0.923223 56.1861 0.923531 56.1861 0.92384C56.1861 0.924148 56.1861 0.924457 56.1861 0.924765C56.1861 0.925074 56.1861 0.925382 56.1861 0.925691C56.1861 0.925999 56.1861 0.926308 56.1861 0.926616C56.1861 0.926925 56.1861 0.927233 56.1861 0.927542C56.1861 0.92785 56.1861 0.928159 56.1861 0.928467C56.1861 0.928776 56.1861 0.929084 56.1861 0.929393C56.1861 0.929701 56.1861 0.93001 56.1861 0.930318H481.436C481.436 0.93001 481.436 0.929701 481.436 0.929393C481.436 0.929084 481.436 0.928776 481.436 0.928467C481.436 0.928159 481.436 0.92785 481.436 0.927542C481.436 0.927233 481.436 0.926925 481.436 0.926616C481.436 0.926308 481.436 0.925999 481.436 0.925691C481.436 0.925382 481.436 0.925074 481.436 0.924765C481.436 0.924457 481.436 0.924148 481.436 0.92384C481.436 0.923531 481.436 0.923223 481.436 0.922914C481.436 0.922606 481.436 0.922297 481.436 0.921989C481.436 0.92168 481.436 0.921372 481.436 0.921063C481.436 0.920755 481.436 0.920446 481.436 0.920138C481.436 0.919829 481.436 0.919521 481.436 0.919212C481.436 0.918904 481.436 0.918595 481.436 0.918287C481.436 0.917978 481.436 0.91767 481.436 0.917361C481.436 0.917053 481.436 0.916744 481.436 0.916436C481.436 0.916127 481.436 0.915819 481.436 0.91551C481.436 0.915202 481.436 0.914893 481.436 0.914585C481.436 0.914276 481.436 0.913968 481.436 0.913659C481.436 0.913351 481.436 0.913042 481.436 0.912734C481.436 0.912425 481.436 0.912117 481.436 0.911808C481.436 0.9115 481.436 0.911191 481.436 0.910883C481.436 0.910574 481.436 0.910266 481.436 0.909957C481.436 0.909649 481.436 0.90934 481.436 0.909032C481.436 0.908723 481.436 0.908415 481.436 0.908106C481.436 0.907798 481.436 0.907489 481.436 0.907181C481.436 0.906872 481.436 0.906564 481.436 0.906255C481.436 0.905947 481.436 0.905638 481.436 0.90533C481.436 0.905021 481.436 0.904713 481.436 0.904404C481.436 0.904096 481.436 0.903787 481.436 0.903479C481.436 0.90317 481.436 0.902862 481.436 0.902553C481.436 0.902245 481.436 0.901936 481.436 0.901628C481.436 0.901319 481.436 0.901011 481.436 0.900702C481.436 0.900394 481.436 0.900085 481.436 0.899777C481.436 0.899468 481.436 0.89916 481.436 0.898851C481.436 0.898543 481.436 0.898234 481.436 0.897926C481.436 0.897617 481.436 0.897309 481.436 0.897C481.436 0.896692 481.436 0.896383 481.436 0.896075C481.436 0.895766 481.436 0.895458 481.436 0.895149C481.436 0.894841 481.436 0.894532 481.436 0.894224C481.436 0.893915 481.436 0.893607 481.436 0.893298C481.436 0.89299 481.436 0.892682 481.436 0.892373C481.436 0.892065 481.436 0.891756 481.436 0.891448C481.436 0.891139 481.436 0.890831 481.436 0.890522C481.436 0.890214 481.436 0.889905 481.436 0.889597C481.436 0.889288 481.436 0.88898 481.436 0.888671C481.436 0.888363 481.436 0.888054 481.436 0.887746C481.436 0.887437 481.436 0.887129 481.436 0.88682C481.436 0.886512 481.436 0.886203 481.436 0.885895C481.436 0.885586 481.436 0.885278 481.436 0.884969C481.436 0.884661 481.436 0.884352 481.436 0.884044C481.436 0.883735 481.436 0.883427 481.436 0.883118C481.436 0.88281 481.436 0.882501 481.436 0.882193C481.436 0.881884 481.436 0.881576 481.436 0.881267C481.436 0.880959 481.436 0.88065 481.436 0.880342C481.436 0.880033 481.436 0.879725 481.436 0.879416C481.436 0.879108 481.436 0.878799 481.436 0.878491C481.436 0.878182 481.436 0.877874 481.436 0.877565C481.436 0.877257 481.436 0.876948 481.436 0.87664C481.436 0.876331 481.436 0.876023 481.436 0.875714C481.436 0.875406 481.436 0.875097 481.436 0.874789C481.436 0.87448 481.436 0.874172 481.436 0.873863C481.436 0.873555 481.436 0.873246 481.436 0.872938C481.436 0.872629 481.436 0.872321 481.436 0.872012C481.436 0.871704 481.436 0.871395 481.436 0.871087C481.436 0.870778 481.436 0.87047 481.436 0.870161C481.436 0.869853 481.436 0.869544 481.436 0.869236C481.436 0.868927 481.436 0.868619 481.436 0.86831C481.436 0.868002 481.436 0.867693 481.436 0.867385C481.436 0.867076 481.436 0.866768 481.436 0.866459C481.436 0.866151 481.436 0.865842 481.436 0.865534C481.436 0.865225 481.436 0.864917 481.436 0.864608C481.436 0.8643 481.436 0.863991 481.436 0.863683C481.436 0.863374 481.436 0.863066 481.436 0.862757C481.436 0.862449 481.436 0.86214 481.436 0.861832C481.436 0.861523 481.436 0.861215 481.436 0.860906C481.436 0.860598 481.436 0.860289 481.436 0.859981C481.436 0.859672 481.436 0.859364 481.436 0.859055C481.436 0.858747 481.436 0.858438 481.436 0.85813C481.436 0.857821 481.436 0.857513 481.436 0.857204C481.436 0.856896 481.436 0.856587 481.436 0.856279C481.436 0.85597 481.436 0.855662 481.436 0.855353C481.436 0.855045 481.436 0.854736 481.436 0.854428C481.436 0.854119 481.436 0.853811 481.436 0.853502C481.436 0.853194 481.436 0.852886 481.436 0.852577C481.436 0.852269 481.436 0.85196 481.436 0.851652C481.436 0.851343 481.436 0.851035 481.436 0.850726C481.436 0.850418 481.436 0.850109 481.436 0.849801C481.436 0.849492 481.436 0.849184 481.436 0.848875C481.436 0.848567 481.436 0.848258 481.436 0.84795C481.436 0.847641 481.436 0.847333 481.436 0.847024C481.436 0.846716 481.436 0.846407 481.436 0.846099C481.436 0.84579 481.436 0.845482 481.436 0.845173C481.436 0.844865 481.436 0.844556 481.436 0.844248C481.436 0.843939 481.436 0.843631 481.436 0.843322C481.436 0.843014 481.436 0.842705 481.436 0.842397C481.436 0.842088 481.436 0.84178 481.436 0.841471C481.436 0.841163 481.436 0.840854 481.436 0.840546C481.436 0.840237 481.436 0.839929 481.436 0.83962C481.436 0.839312 481.436 0.839003 481.436 0.838695C481.436 0.838386 481.436 0.838078 481.436 0.837769C481.436 0.837461 481.436 0.837152 481.436 0.836844C481.436 0.836535 481.436 0.836227 481.436 0.835918C481.436 0.83561 481.436 0.835301 481.436 0.834993C481.436 0.834684 481.436 0.834376 481.436 0.834067C481.436 0.833759 481.436 0.83345 481.436 0.833142C481.436 0.832833 481.436 0.832525 481.436 0.832216C481.436 0.831908 481.436 0.831599 481.436 0.831291C481.436 0.830982 481.436 0.830674 481.436 0.830365C481.436 0.830057 481.436 0.829748 481.436 0.82944C481.436 0.829131 481.436 0.828823 481.436 0.828514C481.436 0.828206 481.436 0.827897 481.436 0.827589C481.436 0.82728 481.436 0.826972 481.436 0.826663C481.436 0.826355 481.436 0.826046 481.436 0.825738C481.436 0.825429 481.436 0.825121 481.436 0.824812C481.436 0.824504 481.436 0.824195 481.436 0.823887C481.436 0.823578 481.436 0.82327 481.436 0.822961C481.436 0.822653 481.436 0.822344 481.436 0.822036C481.436 0.821727 481.436 0.821419 481.436 0.82111C481.436 0.820802 481.436 0.820493 481.436 0.820185C481.436 0.819876 481.436 0.819568 481.436 0.819259C481.436 0.818951 481.436 0.818642 481.436 0.818334C481.436 0.818025 481.436 0.817717 481.436 0.817408C481.436 0.8171 481.436 0.816791 481.436 0.816483C481.436 0.816174 481.436 0.815866 481.436 0.815557C481.436 0.815249 481.436 0.81494 481.436 0.814632C481.436 0.814323 481.436 0.814015 481.436 0.813706C481.436 0.813398 481.436 0.81309 481.436 0.812781C481.436 0.812473 481.436 0.812164 481.436 0.811856C481.436 0.811547 481.436 0.811239 481.436 0.81093C481.436 0.810622 481.436 0.810313 481.436 0.810005C481.436 0.809696 481.436 0.809388 481.436 0.809079C481.436 0.808771 481.436 0.808462 481.436 0.808154C481.436 0.807845 481.436 0.807537 481.436 0.807228C481.436 0.80692 481.436 0.806611 481.436 0.806303C481.436 0.805994 481.436 0.805686 481.436 0.805377C481.436 0.805069 481.436 0.80476 481.436 0.804452C481.436 0.804143 481.436 0.803835 481.436 0.803526C481.436 0.803218 481.436 0.802909 481.436 0.802601C481.436 0.802292 481.436 0.801984 481.436 0.801675C481.436 0.801367 481.436 0.801058 481.436 0.80075C481.436 0.800441 481.436 0.800133 481.436 0.799824C481.436 0.799516 481.436 0.799207 481.436 0.798899C481.436 0.79859 481.436 0.798282 481.436 0.797973C481.436 0.797665 481.436 0.797356 481.436 0.797048C481.436 0.796739 481.436 0.796431 481.436 0.796122C481.436 0.795814 481.436 0.795505 481.436 0.795197C481.436 0.794888 481.436 0.79458 481.436 0.794271C481.436 0.793963 481.436 0.793654 481.436 0.793346C481.436 0.793037 481.436 0.792729 481.436 0.79242C481.436 0.792112 481.436 0.791803 481.436 0.791495C481.436 0.791186 481.436 0.790878 481.436 0.790569C481.436 0.790261 481.436 0.789952 481.436 0.789644C481.436 0.789335 481.436 0.789027 481.436 0.788718C481.436 0.78841 481.436 0.788101 481.436 0.787793C481.436 0.787484 481.436 0.787176 481.436 0.786867C481.436 0.786559 481.436 0.78625 481.436 0.785942C481.436 0.785633 481.436 0.785325 481.436 0.785016C481.436 0.784708 481.436 0.784399 481.436 0.784091C481.436 0.783782 481.436 0.783474 481.436 0.783165C481.436 0.782857 481.436 0.782548 481.436 0.78224C481.436 0.781931 481.436 0.781623 481.436 0.781314C481.436 0.781006 481.436 0.780697 481.436 0.780389C481.436 0.78008 481.436 0.779772 481.436 0.779463C481.436 0.779155 481.436 0.778846 481.436 0.778538C481.436 0.778229 481.436 0.777921 481.436 0.777612C481.436 0.777304 481.436 0.776995 481.436 0.776687C481.436 0.776378 481.436 0.77607 481.436 0.775761C481.436 0.775453 481.436 0.775144 481.436 0.774836C481.436 0.774527 481.436 0.774219 481.436 0.77391C481.436 0.773602 481.436 0.773294 481.436 0.772985C481.436 0.772677 481.436 0.772368 481.436 0.77206C481.436 0.771751 481.436 0.771443 481.436 0.771134C481.436 0.770826 481.436 0.770517 481.436 0.770209C481.436 0.7699 481.436 0.769592 481.436 0.769283C481.436 0.768975 481.436 0.768666 481.436 0.768358C481.436 0.768049 481.436 0.767741 481.436 0.767432C481.436 0.767124 481.436 0.766815 481.436 0.766507C481.436 0.766198 481.436 0.76589 481.436 0.765581C481.436 0.765273 481.436 0.764964 481.436 0.764656C481.436 0.764347 481.436 0.764039 481.436 0.76373C481.436 0.763422 481.436 0.763113 481.436 0.762805C481.436 0.762496 481.436 0.762188 481.436 0.761879C481.436 0.761571 481.436 0.761262 481.436 0.760954C481.436 0.760645 481.436 0.760337 481.436 0.760028C481.436 0.75972 481.436 0.759411 481.436 0.759103C481.436 0.758794 481.436 0.758486 481.436 0.758177C481.436 0.757869 481.436 0.75756 481.436 0.757252C481.436 0.756943 481.436 0.756635 481.436 0.756326C481.436 0.756018 481.436 0.755709 481.436 0.755401C481.436 0.755092 481.436 0.754784 481.436 0.754475C481.436 0.754167 481.436 0.753858 481.436 0.75355C481.436 0.753241 481.436 0.752933 481.436 0.752624C481.436 0.752316 481.436 0.752007 481.436 0.751699C481.436 0.75139 481.436 0.751082 481.436 0.750773C481.436 0.750465 481.436 0.750156 481.436 0.749848C481.436 0.749539 481.436 0.749231 481.436 0.748922C481.436 0.748614 481.436 0.748305 481.436 0.747997C481.436 0.747688 481.436 0.74738 481.436 0.747071C481.436 0.746763 481.436 0.746454 481.436 0.746146C481.436 0.745837 481.436 0.745529 481.436 0.74522C481.436 0.744912 481.436 0.744603 481.436 0.744295C481.436 0.743986 481.436 0.743678 481.436 0.743369C481.436 0.743061 481.436 0.742752 481.436 0.742444C481.436 0.742135 481.436 0.741827 481.436 0.741518C481.436 0.74121 481.436 0.740901 481.436 0.740593C481.436 0.740284 481.436 0.739976 481.436 0.739667C481.436 0.739359 481.436 0.73905 481.436 0.738742C481.436 0.738433 481.436 0.738125 481.436 0.737816C481.436 0.737508 481.436 0.737199 481.436 0.736891C481.436 0.736582 481.436 0.736274 481.436 0.735965C481.436 0.735657 481.436 0.735348 481.436 0.73504C481.436 0.734731 481.436 0.734423 481.436 0.734114C481.436 0.733806 481.436 0.733498 481.436 0.733189C481.436 0.732881 481.436 0.732572 481.436 0.732264C481.436 0.731955 481.436 0.731647 481.436 0.731338C481.436 0.73103 481.436 0.730721 481.436 0.730413C481.436 0.730104 481.436 0.729796 481.436 0.729487C481.436 0.729179 481.436 0.72887 481.436 0.728562C481.436 0.728253 481.436 0.727945 481.436 0.727636C481.436 0.727328 481.436 0.727019 481.436 0.726711C481.436 0.726402 481.436 0.726094 481.436 0.725785C481.436 0.725477 481.436 0.725168 481.436 0.72486C481.436 0.724551 481.436 0.724243 481.436 0.723934C481.436 0.723626 481.436 0.723317 481.436 0.723009C481.436 0.7227 481.436 0.722392 481.436 0.722083C481.436 0.721775 481.436 0.721466 481.436 0.721158C481.436 0.720849 481.436 0.720541 481.436 0.720232C481.436 0.719924 481.436 0.719615 481.436 0.719307C481.436 0.718998 481.436 0.71869 481.436 0.718381C481.436 0.718073 481.436 0.717764 481.436 0.717456C481.436 0.717147 481.436 0.716839 481.436 0.71653C481.436 0.716222 481.436 0.715913 481.436 0.715605C481.436 0.715296 481.436 0.714988 481.436 0.714679C481.436 0.714371 481.436 0.714062 481.436 0.713754C481.436 0.713445 481.436 0.713137 481.436 0.712828C481.436 0.71252 481.436 0.712211 481.436 0.711903C481.436 0.711594 481.436 0.711286 481.436 0.710977C481.436 0.710669 481.436 0.71036 481.436 0.710052C481.436 0.709743 481.436 0.709435 481.436 0.709126C481.436 0.708818 481.436 0.708509 481.436 0.708201C481.436 0.707892 481.436 0.707584 481.436 0.707275C481.436 0.706967 481.436 0.706658 481.436 0.70635C481.436 0.706041 481.436 0.705733 481.436 0.705424C481.436 0.705116 481.436 0.704807 481.436 0.704499C481.436 0.70419 481.436 0.703882 481.436 0.703573C481.436 0.703265 481.436 0.702956 481.436 0.702648C481.436 0.702339 481.436 0.702031 481.436 0.701722C481.436 0.701414 481.436 0.701105 481.436 0.700797C481.436 0.700488 481.436 0.70018 481.436 0.699871C481.436 0.699563 481.436 0.699254 481.436 0.698946C481.436 0.698637 481.436 0.698329 481.436 0.69802C481.436 0.697712 481.436 0.697403 481.436 0.697095C481.436 0.696786 481.436 0.696478 481.436 0.696169C481.436 0.695861 481.436 0.695552 481.436 0.695244C481.436 0.694935 481.436 0.694627 481.436 0.694318C481.436 0.69401 481.436 0.693702 481.436 0.693393C481.436 0.693085 481.436 0.692776 481.436 0.692468C481.436 0.692159 481.436 0.691851 481.436 0.691542C481.436 0.691234 481.436 0.690925 481.436 0.690617C481.436 0.690308 481.436 0.69 481.436 0.689691C481.436 0.689383 481.436 0.689074 481.436 0.688766C481.436 0.688457 481.436 0.688149 481.436 0.68784C481.436 0.687532 481.436 0.687223 481.436 0.686915C481.436 0.686606 481.436 0.686298 481.436 0.685989C481.436 0.685681 481.436 0.685372 481.436 0.685064C481.436 0.684755 481.436 0.684447 481.436 0.684138C481.436 0.68383 481.436 0.683521 481.436 0.683213C481.436 0.682904 481.436 0.682596 481.436 0.682287C481.436 0.681979 481.436 0.68167 481.436 0.681362C481.436 0.681053 481.436 0.680745 481.436 0.680436C481.436 0.680128 481.436 0.679819 481.436 0.679511C481.436 0.679202 481.436 0.678894 481.436 0.678585C481.436 0.678277 481.436 0.677968 481.436 0.67766C481.436 0.677351 481.436 0.677043 481.436 0.676734C481.436 0.676426 481.436 0.676117 481.436 0.675809C481.436 0.6755 481.436 0.675192 481.436 0.674883C481.436 0.674575 481.436 0.674266 481.436 0.673958C481.436 0.673649 481.436 0.673341 481.436 0.673032C481.436 0.672724 481.436 0.672415 481.436 0.672107C481.436 0.671798 481.436 0.67149 481.436 0.671181C481.436 0.670873 481.436 0.670564 481.436 0.670256C481.436 0.669947 481.436 0.669639 481.436 0.66933C481.436 0.669022 481.436 0.668713 481.436 0.668405C481.436 0.668096 481.436 0.667788 481.436 0.667479C481.436 0.667171 481.436 0.666862 481.436 0.666554C481.436 0.666245 481.436 0.665937 481.436 0.665628C481.436 0.66532 481.436 0.665011 481.436 0.664703C481.436 0.664394 481.436 0.664086 481.436 0.663777C481.436 0.663469 481.436 0.66316 481.436 0.662852C481.436 0.662543 481.436 0.662235 481.436 0.661926C481.436 0.661618 481.436 0.661309 481.436 0.661001C481.436 0.660692 481.436 0.660384 481.436 0.660075C481.436 0.659767 481.436 0.659458 481.436 0.65915C481.436 0.658841 481.436 0.658533 481.436 0.658224C481.436 0.657916 481.436 0.657607 481.436 0.657299C481.436 0.65699 481.436 0.656682 481.436 0.656373C481.436 0.656065 481.436 0.655756 481.436 0.655448C481.436 0.655139 481.436 0.654831 481.436 0.654522C481.436 0.654214 481.436 0.653906 481.436 0.653597C481.436 0.653289 481.436 0.65298 481.436 0.652672C481.436 0.652363 481.436 0.652055 481.436 0.651746C481.436 0.651438 481.436 0.651129 481.436 0.650821C481.436 0.650512 481.436 0.650204 481.436 0.649895C481.436 0.649587 481.436 0.649278 481.436 0.64897C481.436 0.648661 481.436 0.648353 481.436 0.648044C481.436 0.647736 481.436 0.647427 481.436 0.647119C481.436 0.64681 481.436 0.646502 481.436 0.646193C481.436 0.645885 481.436 0.645576 481.436 0.645268C481.436 0.644959 481.436 0.644651 481.436 0.644342C481.436 0.644034 481.436 0.643725 481.436 0.643417C481.436 0.643108 481.436 0.6428 481.436 0.642491C481.436 0.642183 481.436 0.641874 481.436 0.641566C481.436 0.641257 481.436 0.640949 481.436 0.64064C481.436 0.640332 481.436 0.640023 481.436 0.639715C481.436 0.639406 481.436 0.639098 481.436 0.638789C481.436 0.638481 481.436 0.638172 481.436 0.637864C481.436 0.637555 481.436 0.637247 481.436 0.636938C481.436 0.63663 481.436 0.636321 481.436 0.636013C481.436 0.635704 481.436 0.635396 481.436 0.635087C481.436 0.634779 481.436 0.63447 481.436 0.634162C481.436 0.633853 481.436 0.633545 481.436 0.633236C481.436 0.632928 481.436 0.632619 481.436 0.632311C481.436 0.632002 481.436 0.631694 481.436 0.631385C481.436 0.631077 481.436 0.630768 481.436 0.63046C481.436 0.630151 481.436 0.629843 481.436 0.629534C481.436 0.629226 481.436 0.628917 481.436 0.628609C481.436 0.6283 481.436 0.627992 481.436 0.627683C481.436 0.627375 481.436 0.627066 481.436 0.626758C481.436 0.626449 481.436 0.626141 481.436 0.625832C481.436 0.625524 481.436 0.625215 481.436 0.624907C481.436 0.624598 481.436 0.62429 481.436 0.623981C481.436 0.623673 481.436 0.623364 481.436 0.623056C481.436 0.622747 481.436 0.622439 481.436 0.62213C481.436 0.621822 481.436 0.621513 481.436 0.621205C481.436 0.620896 481.436 0.620588 481.436 0.620279C481.436 0.619971 481.436 0.619662 481.436 0.619354C481.436 0.619045 481.436 0.618737 481.436 0.618428C481.436 0.61812 481.436 0.617811 481.436 0.617503C481.436 0.617194 481.436 0.616886 481.436 0.616577C481.436 0.616269 481.436 0.61596 481.436 0.615652C481.436 0.615343 481.436 0.615035 481.436 0.614726C481.436 0.614418 481.436 0.61411 481.436 0.613801C481.436 0.613493 481.436 0.613184 481.436 0.612876C481.436 0.612567 481.436 0.612259 481.436 0.61195C481.436 0.611642 481.436 0.611333 481.436 0.611025C481.436 0.610716 481.436 0.610408 481.436 0.610099C481.436 0.609791 481.436 0.609482 481.436 0.609174C481.436 0.608865 481.436 0.608557 481.436 0.608248C481.436 0.60794 481.436 0.607631 481.436 0.607323C481.436 0.607014 481.436 0.606706 481.436 0.606397C481.436 0.606089 481.436 0.60578 481.436 0.605472C481.436 0.605163 481.436 0.604855 481.436 0.604546C481.436 0.604238 481.436 0.603929 481.436 0.603621C481.436 0.603312 481.436 0.603004 481.436 0.602695C481.436 0.602387 481.436 0.602078 481.436 0.60177C481.436 0.601461 481.436 0.601153 481.436 0.600844C481.436 0.600536 481.436 0.600227 481.436 0.599919C481.436 0.59961 481.436 0.599302 481.436 0.598993C481.436 0.598685 481.436 0.598376 481.436 0.598068C481.436 0.597759 481.436 0.597451 481.436 0.597142C481.436 0.596834 481.436 0.596525 481.436 0.596217C481.436 0.595908 481.436 0.5956 481.436 0.595291C481.436 0.594983 481.436 0.594674 481.436 0.594366C481.436 0.594057 481.436 0.593749 481.436 0.59344C481.436 0.593132 481.436 0.592823 481.436 0.592515C481.436 0.592206 481.436 0.591898 481.436 0.591589C481.436 0.591281 481.436 0.590972 481.436 0.590664C481.436 0.590355 481.436 0.590047 481.436 0.589738C481.436 0.58943 481.436 0.589121 481.436 0.588813C481.436 0.588504 481.436 0.588196 481.436 0.587887C481.436 0.587579 481.436 0.58727 481.436 0.586962C481.436 0.586653 481.436 0.586345 481.436 0.586036C481.436 0.585728 481.436 0.585419 481.436 0.585111C481.436 0.584802 481.436 0.584494 481.436 0.584185C481.436 0.583877 481.436 0.583568 481.436 0.58326C481.436 0.582951 481.436 0.582643 481.436 0.582334C481.436 0.582026 481.436 0.581717 481.436 0.581409C481.436 0.5811 481.436 0.580792 481.436 0.580483C481.436 0.580175 481.436 0.579866 481.436 0.579558C481.436 0.579249 481.436 0.578941 481.436 0.578632C481.436 0.578324 481.436 0.578015 481.436 0.577707C481.436 0.577398 481.436 0.57709 481.436 0.576781C481.436 0.576473 481.436 0.576164 481.436 0.575856C481.436 0.575547 481.436 0.575239 481.436 0.57493C481.436 0.574622 481.436 0.574314 481.436 0.574005C481.436 0.573697 481.436 0.573388 481.436 0.57308C481.436 0.572771 481.436 0.572463 481.436 0.572154C481.436 0.571846 481.436 0.571537 481.436 0.571229C481.436 0.57092 481.436 0.570612 481.436 0.570303C481.436 0.569995 481.436 0.569686 481.436 0.569378C481.436 0.569069 481.436 0.568761 481.436 0.568452C481.436 0.568144 481.436 0.567835 481.436 0.567527C481.436 0.567218 481.436 0.56691 481.436 0.566601C481.436 0.566293 481.436 0.565984 481.436 0.565676C481.436 0.565367 481.436 0.565059 481.436 0.56475C481.436 0.564442 481.436 0.564133 481.436 0.563825C481.436 0.563516 481.436 0.563208 481.436 0.562899C481.436 0.562591 481.436 0.562282 481.436 0.561974C481.436 0.561665 481.436 0.561357 481.436 0.561048C481.436 0.56074 481.436 0.560431 481.436 0.560123C481.436 0.559814 481.436 0.559506 481.436 0.559197C481.436 0.558889 481.436 0.55858 481.436 0.558272C481.436 0.557963 481.436 0.557655 481.436 0.557346C481.436 0.557038 481.436 0.556729 481.436 0.556421C481.436 0.556112 481.436 0.555804 481.436 0.555495C481.436 0.555187 481.436 0.554878 481.436 0.55457C481.436 0.554261 481.436 0.553953 481.436 0.553644C481.436 0.553336 481.436 0.553027 481.436 0.552719C481.436 0.55241 481.436 0.552102 481.436 0.551793C481.436 0.551485 481.436 0.551176 481.436 0.550868C481.436 0.550559 481.436 0.550251 481.436 0.549942C481.436 0.549634 481.436 0.549325 481.436 0.549017C481.436 0.548708 481.436 0.5484 481.436 0.548091C481.436 0.547783 481.436 0.547474 481.436 0.547166C481.436 0.546857 481.436 0.546549 481.436 0.54624C481.436 0.545932 481.436 0.545623 481.436 0.545315C481.436 0.545006 481.436 0.544698 481.436 0.544389C481.436 0.544081 481.436 0.543772 481.436 0.543464C481.436 0.543155 481.436 0.542847 481.436 0.542538C481.436 0.54223 481.436 0.541921 481.436 0.541613C481.436 0.541304 481.436 0.540996 481.436 0.540687C481.436 0.540379 481.436 0.54007 481.436 0.539762C481.436 0.539453 481.436 0.539145 481.436 0.538836C481.436 0.538528 481.436 0.538219 481.436 0.537911C481.436 0.537602 481.436 0.537294 481.436 0.536985C481.436 0.536677 481.436 0.536368 481.436 0.53606C481.436 0.535751 481.436 0.535443 481.436 0.535134C481.436 0.534826 481.436 0.534518 481.436 0.534209C481.436 0.533901 481.436 0.533592 481.436 0.533284C481.436 0.532975 481.436 0.532667 481.436 0.532358C481.436 0.53205 481.436 0.531741 481.436 0.531433C481.436 0.531124 481.436 0.530816 481.436 0.530507C481.436 0.530199 481.436 0.52989 481.436 0.529582C481.436 0.529273 481.436 0.528965 481.436 0.528656C481.436 0.528348 481.436 0.528039 481.436 0.527731C481.436 0.527422 481.436 0.527114 481.436 0.526805C481.436 0.526497 481.436 0.526188 481.436 0.52588C481.436 0.525571 481.436 0.525263 481.436 0.524954C481.436 0.524646 481.436 0.524337 481.436 0.524029C481.436 0.52372 481.436 0.523412 481.436 0.523103C481.436 0.522795 481.436 0.522486 481.436 0.522178C481.436 0.521869 481.436 0.521561 481.436 0.521252C481.436 0.520944 481.436 0.520635 481.436 0.520327C481.436 0.520018 481.436 0.51971 481.436 0.519401C481.436 0.519093 481.436 0.518784 481.436 0.518476C481.436 0.518167 481.436 0.517859 481.436 0.51755C481.436 0.517242 481.436 0.516933 481.436 0.516625C481.436 0.516316 481.436 0.516008 481.436 0.515699C481.436 0.515391 481.436 0.515082 481.436 0.514774C481.436 0.514465 481.436 0.514157 481.436 0.513848C481.436 0.51354 481.436 0.513231 481.436 0.512923C481.436 0.512614 481.436 0.512306 481.436 0.511997C481.436 0.511689 481.436 0.51138 481.436 0.511072C481.436 0.510763 481.436 0.510455 481.436 0.510146C481.436 0.509838 481.436 0.509529 481.436 0.509221C481.436 0.508912 481.436 0.508604 481.436 0.508295C481.436 0.507987 481.436 0.507678 481.436 0.50737C481.436 0.507061 481.436 0.506753 481.436 0.506444C481.436 0.506136 481.436 0.505827 481.436 0.505519C481.436 0.50521 481.436 0.504902 481.436 0.504593C481.436 0.504285 481.436 0.503976 481.436 0.503668C481.436 0.503359 481.436 0.503051 481.436 0.502742C481.436 0.502434 481.436 0.502125 481.436 0.501817C481.436 0.501508 481.436 0.5012 481.436 0.500891C481.436 0.500583 481.436 0.500274 481.436 0.499966C481.436 0.499657 481.436 0.499349 481.436 0.49904C481.436 0.498732 481.436 0.498423 481.436 0.498115C481.436 0.497806 481.436 0.497498 481.436 0.497189C481.436 0.496881 481.436 0.496572 481.436 0.496264C481.436 0.495955 481.436 0.495647 481.436 0.495339C481.436 0.49503 481.436 0.494722 481.436 0.494413C481.436 0.494105 481.436 0.493796 481.436 0.493488C481.436 0.493179 481.436 0.492871 481.436 0.492562C481.436 0.492254 481.436 0.491945 481.436 0.491637C481.436 0.491328 481.436 0.49102 481.436 0.490711C481.436 0.490403 481.436 0.490094 481.436 0.489786C481.436 0.489477 481.436 0.489169 481.436 0.48886C481.436 0.488552 481.436 0.488243 481.436 0.487935C481.436 0.487626 481.436 0.487318 481.436 0.487009C481.436 0.486701 481.436 0.486392 481.436 0.486084C481.436 0.485775 481.436 0.485467 481.436 0.485158C481.436 0.48485 481.436 0.484541 481.436 0.484233C481.436 0.483924 481.436 0.483616 481.436 0.483307C481.436 0.482999 481.436 0.48269 481.436 0.482382C481.436 0.482073 481.436 0.481765 481.436 0.481456C481.436 0.481148 481.436 0.480839 481.436 0.480531C481.436 0.480222 481.436 0.479914 481.436 0.479605C481.436 0.479297 481.436 0.478988 481.436 0.47868C481.436 0.478371 481.436 0.478063 481.436 0.477754C481.436 0.477446 481.436 0.477137 481.436 0.476829C481.436 0.47652 481.436 0.476212 481.436 0.475903C481.436 0.475595 481.436 0.475286 481.436 0.474978C481.436 0.474669 481.436 0.474361 481.436 0.474052C481.436 0.473744 481.436 0.473435 481.436 0.473127C481.436 0.472818 481.436 0.47251 481.436 0.472201C481.436 0.471893 481.436 0.471584 481.436 0.471276C481.436 0.470967 481.436 0.470659 481.436 0.47035C481.436 0.470042 481.436 0.469733 481.436 0.469425C481.436 0.469116 481.436 0.468808 481.436 0.468499C481.436 0.468191 481.436 0.467882 481.436 0.467574C481.436 0.467265 481.436 0.466957 481.436 0.466648C481.436 0.46634 481.436 0.466031 481.436 0.465723C481.436 0.465414 481.436 0.465106 481.436 0.464797C481.436 0.464489 481.436 0.46418 481.436 0.463872C481.436 0.463563 481.436 0.463255 481.436 0.462946C481.436 0.462638 481.436 0.462329 481.436 0.462021C481.436 0.461712 481.436 0.461404 481.436 0.461095C481.436 0.460787 481.436 0.460478 481.436 0.46017C481.436 0.459861 481.436 0.459553 481.436 0.459244C481.436 0.458936 481.436 0.458627 481.436 0.458319C481.436 0.45801 481.436 0.457702 481.436 0.457393C481.436 0.457085 481.436 0.456776 481.436 0.456468H56.1861ZM268.811 -211.695C220.84 -211.695 173.142 -211.683 125.446 -211.749L124.853 213.5C172.924 213.568 221.004 213.555 268.811 213.555V-211.695ZM125.149 -211.749C107.399 -211.749 69.8237 -209.775 28.1903 -189.038C-17.0987 -166.481 -45.3807 -132.872 -61.7165 -105.136L304.701 110.678C289.21 136.98 261.888 169.641 217.782 191.61C177.331 211.757 141.162 213.501 125.149 213.501V-211.749ZM-61.793 -105.006C-63.0933 -102.795 -64.0027 -101.319 -66.868 -96.5574L297.496 122.706C298.762 120.603 302.02 115.238 304.778 110.548L-61.793 -105.006ZM-66.9005 -96.5033C-75.1457 -82.7925 -84.1725 -67.8514 -92.9178 -53.201L272.224 164.764C280.501 150.898 288.654 137.408 297.529 122.652L-66.9005 -96.5033ZM-92.9239 -53.1908C-105.077 -32.8289 -105.619 -31.5997 -116.203 -13.9149L248.684 204.477C253.821 195.894 268.698 170.672 272.23 164.754L-92.9239 -53.1908ZM-116.195 -13.9283C-126.747 3.69834 -131.237 10.8904 -143.104 30.6582L221.493 249.535C227.583 239.389 241.306 216.802 248.676 204.491L-116.195 -13.9283ZM-143.12 30.6857C-155.361 51.0824 -167.624 71.5802 -179.871 92.171L185.615 309.558C197.498 289.58 209.462 269.582 221.509 249.507L-143.12 30.6857ZM-179.969 92.3361C-196.147 119.592 -210.879 157.473 -211.667 203.545C-212.476 250.754 -198.372 292.484 -178.09 325.326L183.725 101.882C201.358 130.435 214.255 167.873 213.52 210.823C212.804 252.637 199.425 286.293 185.713 309.393L-179.969 92.3361ZM-178.133 325.257C-174.002 331.953 -169.821 338.812 -165.438 346.033L198.07 125.353C193.498 117.823 188.7 109.945 183.767 101.951L-178.133 325.257ZM-165.465 345.988C-156.75 360.351 -146.72 376.976 -137.508 392.123L225.823 171.153C216.421 155.694 207.959 141.652 198.097 125.398L-165.465 345.988ZM-137.487 392.158C-129.773 404.835 -117.617 424.654 -110.569 436.223L252.612 215.006C241.786 197.234 235.949 187.795 225.802 171.118L-137.487 392.158ZM-110.553 436.25C-101.772 450.661 -93.9712 463.582 -84.7238 478.793L278.647 257.887C270.58 244.619 261.153 229.024 252.596 214.98L-110.553 436.25ZM-84.7513 478.748C-76.3149 492.633 -67.7385 506.748 -59.1111 520.878L303.833 299.273C295.487 285.603 287.151 271.883 278.674 257.933L-84.7513 478.748ZM-59.1053 520.888C-29.3905 569.549 33.0038 626.686 127.409 628.801L136.936 203.658C174.921 204.509 211.71 216.117 243.059 236.671C272.947 256.267 292.122 280.094 303.827 299.263L-59.1053 520.888ZM127.452 628.802C135.656 628.984 150.382 629.301 166.724 628.473L145.212 203.767C145.801 203.738 145.582 203.766 144.118 203.766C142.561 203.766 140.481 203.737 136.892 203.657L127.452 628.802ZM166.481 628.485C221.779 625.748 275.702 602.097 315.509 561.153L10.6064 264.721C32.1813 242.529 54.8881 229.159 72.7863 221.132C90.765 213.069 115.381 205.244 145.455 203.755L166.481 628.485ZM315.504 561.158C331.216 544.998 341.286 529.826 346.131 522.164C348.672 518.147 350.656 514.758 351.514 513.29C351.751 512.883 351.962 512.52 352.104 512.276C352.287 511.961 352.321 511.902 352.408 511.752C352.546 511.515 352.404 511.762 352.149 512.19L-13.5322 295.131C-14.4775 296.724 -16.335 299.921 -15.74 298.901C-15.7364 298.895 -15.6756 298.791 -15.5762 298.623C-15.4756 298.452 -15.3199 298.19 -15.1203 297.857C-14.7292 297.206 -14.0981 296.167 -13.2778 294.87C-10.4419 290.386 -2.54334 278.245 10.6113 264.716L315.504 561.158ZM352.238 512.041C357.979 502.351 365.178 489.915 369.494 482.557L2.68124 267.416C-4.20517 279.157 -8.07424 285.919 -13.6203 295.28L352.238 512.041ZM369.54 482.479C372.43 477.546 375.347 472.591 378.387 467.426C381.391 462.322 384.519 457.007 387.656 451.654L20.7511 236.669C17.861 241.602 14.9446 246.557 11.9047 251.722C8.90002 256.827 5.77178 262.141 2.63547 267.494L369.54 482.479ZM387.673 451.624C394.826 439.412 397.874 434.103 404.305 423.143L37.5269 207.942C32.7798 216.032 24.7466 229.848 20.7336 236.699L387.673 451.624ZM404.339 423.085C407.934 416.953 411.553 410.802 415.272 404.483C418.962 398.212 422.751 391.772 426.543 385.304L59.6967 170.22C56.1018 176.351 52.4824 182.502 48.764 188.822C45.0739 195.093 41.2848 201.532 37.4926 208L404.339 423.085ZM426.582 385.237C435.093 370.71 439.393 363.25 447.245 349.865L80.4507 134.691C74.4396 144.938 64.9979 161.171 59.6576 170.287L426.582 385.237ZM447.254 349.849C451.214 343.097 464.962 319.809 469.715 311.7L102.826 96.6877C92.6829 113.996 91.3893 116.041 80.4417 134.707L447.254 349.849ZM469.685 311.751C480.613 293.117 487.242 281.67 497.594 264.036L130.862 48.7557C122.527 62.9547 110.603 83.4258 102.856 96.6364L469.685 311.751ZM497.583 264.054C504.742 251.86 516.159 232.58 524.063 219.096L157.185 4.06516C147.556 20.4935 141.27 31.03 130.873 48.7371L497.583 264.054ZM524.024 219.162C535.645 199.351 539.71 192.185 550.33 174.113L183.697 -41.3358C176.639 -29.3246 163.256 -6.28585 157.224 3.99858L524.024 219.162ZM550.358 174.065C557.964 161.114 569.727 141.396 578.789 125.834L211.31 -88.1669C201.856 -71.9329 194.701 -60.0729 183.669 -41.2878L550.358 174.065ZM578.695 125.996C578.833 125.759 578.629 126.108 578.831 125.763C578.903 125.639 579.019 125.44 579.154 125.208C579.42 124.751 579.844 124.019 580.348 123.135C581.333 121.406 582.921 118.577 584.748 115.068C588.272 108.303 594.003 96.5403 599.042 81.2294C610.162 47.4396 617 -1.60301 599.267 -55.8917L195.036 76.1474C178.39 25.1878 184.931 -20.793 195.105 -51.7078C203.004 -75.7094 215.053 -94.5827 211.404 -88.3291L578.695 125.996ZM587.344 105.187L587.35 105.175L206.965 -84.9432L206.959 -84.931L587.344 105.187ZM52.244 -17.7774L-47.5257 150.707L318.382 367.383L418.152 198.899L52.244 -17.7774ZM-47.5363 150.725C7.32319 58.061 126.948 27.3847 219.647 82.3051L2.88956 448.166C112.344 513.013 253.607 476.796 318.393 367.365L-47.5363 150.725ZM219.589 82.2707C312.252 137.13 342.929 256.754 288.008 349.454L-77.8526 132.697C-142.7 242.151 -106.482 383.414 2.9477 448.2L219.589 82.2707ZM288.032 349.413L387.801 180.929L21.8933 -35.7473L-77.8764 132.737L288.032 349.413ZM387.812 180.911C332.953 273.575 213.329 304.251 120.629 249.331L337.386 -116.53C227.932 -181.377 86.6685 -145.16 21.8827 -35.7294L387.812 180.911ZM120.687 249.365C28.0242 194.506 -2.65279 74.8819 52.2679 -17.8177L418.128 198.939C482.976 89.485 446.758 -51.7783 337.328 -116.564L120.687 249.365Z" fill="url(#paint0_radial_1515_820)" mask="url(#path-1-outside-1_1515_820)"/>
</g>
</g>
<defs>
<filter id="filter0_f_1515_820" x="-357.501" y="-357.978" width="1129.7" height="1132.79" filterUnits="userSpaceOnUse" color-interpolation-filters="sRGB">
<feFlood flood-opacity="0" result="BackgroundImageFix"/>
<feBlend mode="normal" in="SourceGraphic" in2="BackgroundImageFix" result="shape"/>
<feGaussianBlur stdDeviation="72.9" result="effect1_foregroundBlur_1515_820"/>
</filter>
<radialGradient id="paint0_radial_1515_820" cx="0" cy="0" r="1" gradientUnits="userSpaceOnUse" gradientTransform="translate(167.987 173.889) rotate(49.8238) scale(288.618 335.498)">
<stop stop-color="#FFCC00" stop-opacity="0"/>
<stop offset="0.34" stop-color="#FFCC00"/>
<stop offset="0.61" stop-color="#FF2D55"/>
<stop offset="0.835" stop-color="#AF52DE"/>
<stop offset="1" stop-color="#232323"/>
</radialGradient>
<clipPath id="clip0_1515_820">
<rect width="396.574" height="415.944" fill="white" transform="translate(0.924805 0.447266)"/>
</clipPath>
</defs>
</svg>
