<svg width="397" height="417" viewBox="0 0 397 417" fill="none" xmlns="http://www.w3.org/2000/svg">
<g clip-path="url(#clip0_1515_821)">
<g opacity="0.6" filter="url(#filter0_f_1515_821)">
<path d="M422.512 375.82C417.77 383.744 414.375 389.504 410.836 395.51C407.495 401.18 404.025 407.068 399.17 415.201L399.167 415.206C392.957 425.61 386.653 436.078 380.474 446.339C378.069 450.333 375.683 454.296 373.328 458.211L373.32 458.224L373.312 458.238C372.581 459.452 371.935 460.522 371.345 461.5C369.944 463.82 368.856 465.622 367.685 467.614L367.582 467.79L367.477 467.966C359.181 481.951 344.892 498.929 321.993 510.348C300.867 520.884 281.71 521.933 272.385 521.933H272.311L272.237 521.933C259.836 521.916 247.434 521.904 235.03 521.895V522.352H128.718C123.374 522.352 117.985 522.355 112.57 522.357C100.271 522.362 87.8357 522.367 75.4762 522.346H75.4729C67.6032 522.332 60.0983 522.298 52.7743 522.264C39.5329 522.203 26.8825 522.144 13.7363 522.217L422.512 375.82ZM422.512 375.82C422.514 375.818 422.515 375.815 422.517 375.813C427.638 367.258 431.945 360.15 436.389 352.815C440.409 346.182 444.541 339.363 449.49 331.119L449.494 331.112L449.498 331.105C461.69 310.789 473.879 290.416 486.035 269.978L486.059 269.937L486.084 269.896C494.789 255.229 502.493 235.232 502.906 211.131C503.328 186.462 495.975 164.524 485.172 147.031L479.864 138.438C477.294 134.235 474.709 129.986 472.091 125.674C472.087 125.667 472.082 125.659 472.078 125.652C468.339 119.49 464.49 113.13 460.605 106.71C455.139 97.6791 449.601 88.5277 444.192 79.6341L444.187 79.6254C439.776 72.3746 435.313 65.0744 430.923 57.8945C429.051 54.8324 427.192 51.7921 425.356 48.7869L414.17 30.4733L404.748 14.9381C403.54 12.9452 402.323 10.9387 401.101 8.92351C397.895 3.63496 394.652 -1.71385 391.418 -7.03571C391.415 -7.04084 391.411 -7.04596 391.408 -7.05109L391.374 -7.10692C382.942 -20.9849 374.44 -34.9776 365.898 -48.9684L365.895 -48.9732C364.703 -50.9254 363.417 -52.8977 362.037 -54.8768L333.217 -102.06L325.627 -89.244C309.896 -98.8396 290.588 -105.495 267.732 -106.007L267.722 -106.007L267.711 -106.007C259.642 -106.187 248.306 -106.402 236.177 -105.788C207.343 -104.33 178.966 -91.8538 158.242 -70.5391C158.241 -70.5382 158.241 -70.5374 158.24 -70.5366C149.746 -61.7997 144.168 -53.4568 141.244 -48.8321C139.722 -46.4262 138.489 -44.3257 137.823 -43.1841C137.6 -42.8023 137.304 -42.293 137.134 -42.0004C137.083 -41.9121 137.043 -41.8436 137.02 -41.8042C136.858 -41.5253 136.801 -41.4287 136.794 -41.4166C136.793 -41.4156 136.793 -41.4152 136.793 -41.4152L136.772 -41.3794L136.75 -41.3423C133.148 -35.263 129.276 -28.6196 125.662 -22.4182C123.564 -18.8187 121.553 -15.3681 119.732 -12.2631L119.72 -12.2436L119.709 -12.2241C116.757 -7.1867 113.788 -2.14175 110.757 3.00812L110.727 3.05938C107.723 8.16291 104.658 13.3704 101.593 18.6004L101.589 18.6079L101.584 18.6154C98.5767 23.7505 96.0314 28.1193 93.5494 32.3796C90.777 37.1383 88.0835 41.7614 84.9126 47.1657L84.904 47.1803L84.8955 47.1949C81.2512 53.4106 77.5893 59.6338 73.878 65.9411L73.8613 65.9695C70.1696 72.2435 66.4286 78.6011 62.6914 84.9753L62.6816 84.992L62.6718 85.0087C59.0108 91.258 55.8296 96.7151 52.7078 102.07C49.2484 108.005 45.8619 113.814 41.9765 120.437L41.972 120.445C39.2669 125.057 35.4554 131.521 31.5443 138.153C27.2099 145.504 22.7532 153.062 19.545 158.536C19.5418 158.542 19.5385 158.547 19.5353 158.553C19.5335 158.556 19.5318 158.559 19.53 158.562C14.7038 166.792 10.3715 174.211 6.09296 181.539C1.39723 189.581 -3.23385 197.513 -8.38239 206.283M422.512 375.82L-8.38239 206.283M-8.38239 206.283C-8.38422 206.287 -8.38604 206.29 -8.38787 206.293C-12.0185 212.476 -16.0984 219.39 -20.2526 226.43C-25.2083 234.829 -30.2698 243.407 -34.8008 251.137C-34.803 251.141 -34.8051 251.145 -34.8073 251.148C-34.8117 251.156 -34.816 251.163 -34.8203 251.17C-39.7266 259.535 -43.751 266.449 -47.6866 273.211C-51.9434 280.525 -56.0963 287.66 -61.1488 296.258L-61.1558 296.27L-61.1629 296.282C-64.5511 302.051 -68.2838 308.357 -72.1299 314.854C-77.8789 324.565 -83.8813 334.705 -89.3657 344.122C-89.467 344.295 -89.9697 345.154 -90.4596 346.014C-91.0462 347.043 -91.9325 348.625 -92.9344 350.548C-94.8725 354.269 -97.897 360.498 -100.535 368.513C-106.331 386.127 -109.825 411.414 -100.687 439.39L-100.682 439.404L-100.678 439.418C-96.5783 451.956 -86.8989 475.447 -63.4184 494.998C-37.9882 516.172 -9.11363 522.344 13.7298 522.217L-8.38239 206.283ZM12.552 309.595C12.5614 309.595 12.5708 309.595 12.5802 309.595C12.5708 309.595 12.5614 309.595 12.552 309.595ZM12.552 309.595C12.5499 309.595 12.5478 309.595 12.5456 309.595L12.552 309.595ZM222.69 258.646L222.675 258.638L222.69 258.646ZM184.437 61.8534C184.434 61.8486 184.432 61.8438 184.429 61.839C184.432 61.8438 184.434 61.8486 184.437 61.8534ZM94.3432 451.175C94.4805 450.939 94.6175 450.704 94.7544 450.469C93.779 452.279 93.4253 452.748 94.2959 451.256L94.3196 451.216L94.3432 451.175Z" stroke="url(#paint0_radial_1515_821)" stroke-width="212.625"/>
</g>
</g>
<defs>
<filter id="filter0_f_1515_821" x="-358.409" y="-454.125" width="1113.44" height="1228.6" filterUnits="userSpaceOnUse" color-interpolation-filters="sRGB">
<feFlood flood-opacity="0" result="BackgroundImageFix"/>
<feBlend mode="normal" in="SourceGraphic" in2="BackgroundImageFix" result="shape"/>
<feGaussianBlur stdDeviation="72.9" result="effect1_foregroundBlur_1515_821"/>
</filter>
<radialGradient id="paint0_radial_1515_821" cx="0" cy="0" r="1" gradientUnits="userSpaceOnUse" gradientTransform="translate(214.472 208.186) rotate(56.3751) scale(296.206 341.086)">
<stop stop-color="#FFCC00" stop-opacity="0"/>
<stop offset="0.16" stop-color="#FFCC00"/>
<stop offset="0.513318" stop-color="#FF2D55"/>
<stop offset="0.759404" stop-color="#AF52DE"/>
<stop offset="1" stop-color="#232323"/>
</radialGradient>
<clipPath id="clip0_1515_821">
<rect width="396.586" height="415.932" fill="white" transform="translate(0.0244141 0.117188)"/>
</clipPath>
</defs>
</svg>
